<?xml version="1.0" encoding="utf-8"?>
<!-- Generator: Adobe Illustrator 19.0.0, SVG Export Plug-In . SVG Version: 6.00 Build 0)  -->
<svg version="1.1" id="Layer_1" xmlns="http://www.w3.org/2000/svg" xmlns:xlink="http://www.w3.org/1999/xlink" x="0px" y="0px"
	 width="27.3px" height="27.3px" viewBox="-465 267.7 27.3 27.3" style="enable-background:new -465 267.7 27.3 27.3;"
	 xml:space="preserve">
<g>
	<path d="M-453.1,267.7c-6.6,0-11.9,5.3-11.9,11.9s5.3,11.9,11.9,11.9s11.9-5.3,11.9-11.9C-441.1,273-446.5,267.7-453.1,267.7z
		 M-453,289.9c-5.7,0-10.2-4.6-10.2-10.2c0-5.7,4.6-10.2,10.2-10.2c5.7,0,10.2,4.6,10.2,10.2S-447.4,289.9-453,289.9z M-438,293.5
		l-4.8-4.8l-1.2,1.2l4.8,4.8c0.3,0.3,0.9,0.3,1.2,0C-437.7,294.3-437.7,293.8-438,293.5z"/>
</g>
</svg>
