<?xml version="1.0" encoding="utf-8"?>
<!-- Generator: Adobe Illustrator 22.1.0, SVG Export Plug-In . SVG Version: 6.00 Build 0)  -->
<svg version="1.1" id="Layer_1" xmlns="http://www.w3.org/2000/svg" xmlns:xlink="http://www.w3.org/1999/xlink" x="0px" y="0px"
	 viewBox="0 0 256 256" style="enable-background:new 0 0 256 256;" xml:space="preserve">
<style type="text/css">
	.st0{fill:url(#SVGID_1_);stroke:#2064A9;stroke-miterlimit:10;}
	.st1{fill:url(#SVGID_2_);fill-opacity:0.95;}
	.st2{fill:#FFB700;fill-opacity:0.95;}
	.st3{fill:#FFFFA6;}
	.st4{fill:url(#SVGID_3_);fill-opacity:0.95;}
	.st5{fill:#FFFFFF;}
</style>
<g id="the_e">
	
		<radialGradient id="SVGID_1_" cx="134.4014" cy="669.7352" r="104.4259" fx="129.84" fy="667.5643" gradientTransform="matrix(0.6237 0.7816 0.7859 -0.6271 -466.6656 430.698)" gradientUnits="userSpaceOnUse">
		<stop  offset="0" style="stop-color:#89EAFE"/>
		<stop  offset="0.2624" style="stop-color:#86E8FD"/>
		<stop  offset="0.4357" style="stop-color:#7DDFF9"/>
		<stop  offset="0.5832" style="stop-color:#6ED2F2"/>
		<stop  offset="0.7163" style="stop-color:#59BEE9"/>
		<stop  offset="0.8397" style="stop-color:#3EA5DD"/>
		<stop  offset="0.9544" style="stop-color:#1C87CF"/>
		<stop  offset="1" style="stop-color:#0D79C8"/>
	</radialGradient>
	<path class="st0" d="M100.5,117.8c2.6-23.3,21-42,43.9-42c25.7,0,43.4,18,45,42H100.5z M184.7,167c-6.5,13.4-20,22.1-40.4,22.6
		c-28.3,0.7-43.2-23.4-43.9-44.1h84h4.9h56.9c0.5-4.2,0.8-8.4,0.8-12.8c0-56.4-45.7-102.1-102.1-102.1S42.8,76.3,42.8,132.7
		s45.7,102.1,102.1,102.1c44.4,0,82.1-28.3,96.2-67.8L184.7,167L184.7,167z"/>
</g>
<g id="halo">
	
		<linearGradient id="SVGID_2_" gradientUnits="userSpaceOnUse" x1="237.7706" y1="193.744" x2="234.4536" y2="178.3295" gradientTransform="matrix(1 0 0 -1 0 258)">
		<stop  offset="0" style="stop-color:#FFB700"/>
		<stop  offset="0.8599" style="stop-color:#FFB700;stop-opacity:0"/>
	</linearGradient>
	<path class="st1" d="M235.5,63.7c-0.8,3.1-1.6,5.8-2.1,8.1c-0.4,1.8-0.6,7.1-0.6,7.1s3.8-2.4,4.7-3.6c0.8-1.1,1.9-5.8,2.9-10.5
		L235.5,63.7z"/>
	<path class="st2" d="M240.6,65c0.7-3.1,1.3-6.3,1.6-8.5c1.3-8.1,4-51.3-53.7-39C111.1,33.9,68.3,94.6,61.5,103
		c-12.9,16-51.3,77.8-41.2,115.8c5.9,22.2,29.5,22.1,46.7,18.6l-1.2-6.1c-29.2,4.7-33.6-17.5-29.6-34.8
		c4.9-21.6,20.8-57.1,72.2-107.1c45.6-44.4,94-69.2,119.2-56.9c13.4,6.5,10.8,20.6,7.9,31.4L240.6,65z"/>
	<g>
		<path class="st3" d="M188.5,17.5C111.1,33.9,68.3,94.6,61.5,103c-8.1,10-26.1,38-36,66.8c-0.6,2.3-1.3,4.6-2.1,6.6l0,0
			C55.2,94.9,134.2,37.2,191.6,16.9C190.6,17.1,189.5,17.3,188.5,17.5z"/>
	</g>
	
		<linearGradient id="SVGID_3_" gradientUnits="userSpaceOnUse" x1="66.3877" y1="22.9808" x2="87.8896" y2="31.6087" gradientTransform="matrix(1 0 0 -1 0 258)">
		<stop  offset="0" style="stop-color:#FFB700"/>
		<stop  offset="1" style="stop-color:#FFB700;stop-opacity:0"/>
	</linearGradient>
	<path class="st4" d="M67,237.3c9.4-2,17.1-5,18.8-5.9c1.6-0.9,7.1-3.9,12.1-6.9l-4.4-2.5c-2.4,0.9-5.2,2-8.3,3.3
		c-7.3,3-13.9,4.9-19.4,5.7L67,237.3z"/>
</g>
<path class="st5" d="M256,251.6l-4.4,4.4L128,132.4L4.4,256L0,251.6L123.6,128L0,4.4L4.4,0L128,123.6L251.6,0l4.4,4.4L132.4,128
	L256,251.6z"/>
</svg>
