<svg xmlns="http://www.w3.org/2000/svg" width="22.154" height="23.839"><path data-name="Path 2019" d="M6.314 15.7H19.45a2.71 2.71 0 002.7-2.7V7.407a.062.062 0 000-.029v-.063a.31.31 0 01-.01-.034c0-.01 0-.02-.01-.029s0-.02-.01-.029a.239.239 0 01-.015-.034.107.107 0 00-.015-.024l-.015-.029c0-.01-.01-.015-.015-.024l-.02-.029a.086.086 0 00-.02-.024c0-.01-.015-.015-.02-.024s-.015-.015-.02-.024-.015-.015-.02-.02l-.025-.024c-.01 0-.015-.015-.024-.02l-.029-.02-.024-.015a.1.1 0 01-.029-.02l-.029-.015-.029-.015-.029-.015c-.01 0-.02 0-.029-.01a.091.091 0 00-.034-.01.212.212 0 01-.024 0 .108.108 0 00-.039 0h-.02l-16.648-2.3V2.189a.3.3 0 000-.069.037.037 0 000-.02v-.044c0-.015 0-.024-.01-.039s0-.015 0-.024l-.015-.044v-.02a.147.147 0 00-.02-.039s0-.015-.01-.02a.1.1 0 00-.02-.029c0-.01-.01-.015-.015-.024l-.015-.024-.02-.029-.015-.015-.029-.029-.047-.02a.213.213 0 00-.034-.029l-.02-.015c-.005-.005-.02-.015-.029-.024a.452.452 0 00-.039-.024s-.01 0-.015-.01l-.064-.029L.92.053a.662.662 0 10-.514 1.22l3.2 1.352v14.492a2.708 2.708 0 002.357 2.68 2.669 2.669 0 104.958 1.372 2.62 2.62 0 00-.367-1.347h5.948a2.633 2.633 0 00-.367 1.347 2.67 2.67 0 102.67-2.67H6.314a1.383 1.383 0 01-1.382-1.382v-1.793a2.735 2.735 0 001.382.376zm3.292 5.468a1.347 1.347 0 11-1.347-1.347 1.35 1.35 0 011.348 1.343zm10.553 0a1.347 1.347 0 11-1.347-1.347 1.35 1.35 0 011.348 1.343zm-.71-6.791H6.314a1.383 1.383 0 01-1.382-1.382V5.844l15.9 2.19v4.953a1.384 1.384 0 01-1.382 1.387z" fill="#fff"/></svg>