<svg xmlns="http://www.w3.org/2000/svg" width="117.2" height="30"><path d="M0 15.9l2.9-.3c.1 1.1.5 2.1.9 2.8.5.7 1.3 1.3 2.3 1.8 1 .5 2.2.7 3.5.7 1.2 0 2.2-.2 3.1-.5.9-.3 1.5-.8 2-1.4.4-.6.6-1.3.6-2s-.2-1.3-.6-1.9c-.4-.5-1.1-1-2.1-1.4-.6-.2-2-.6-4.1-1.1-2.1-.5-3.6-1-4.4-1.4-1.1-.5-1.9-1.2-2.4-2-.6-.9-.8-1.8-.8-2.9 0-1.2.3-2.2 1-3.2S3.5 1.3 4.8.8C6 .3 7.4 0 8.9 0c1.7 0 3.2.3 4.5.8s2.3 1.4 3 2.4c.7 1.1 1.1 2.3 1.1 3.6l-2.9.2c-.2-1.4-.7-2.5-1.6-3.3-.9-.7-2.2-1.1-4-1.1-1.8 0-3.2.3-4 1-.8.8-1.2 1.6-1.2 2.5 0 .8.3 1.5.9 2 .6.5 2.1 1.1 4.6 1.6 2.5.6 4.2 1 5.1 1.5 1.3.6 2.3 1.4 3 2.3.6.9 1 2 1 3.3 0 1.2-.3 2.4-1 3.4-.7 1.1-1.7 1.9-3 2.5-1.3.6-2.8.9-4.4.9-2.1 0-3.8-.3-5.2-.9-1.4-.6-2.5-1.5-3.3-2.7-1-1.2-1.5-2.5-1.5-4.1zM21.7 3.6V.4h2.8v3.2h-2.8zm0 19.7V6.7h2.8v16.6h-2.8zm12.8-2.5l.4 2.5c-.8.2-1.5.3-2.1.3-1 0-1.8-.2-2.4-.5s-1-.7-1.2-1.3c-.2-.5-.3-1.6-.3-3.3V8.9h-2.1V6.7h2.1V2.6L31.7.9v5.8h2.8v2.2h-2.8v9.7c0 .8 0 1.3.1 1.5.1.2.3.4.5.5.2.1.5.2 1 .2.3.1.7.1 1.2 0zM48 18l2.9.4c-.5 1.7-1.3 3-2.5 4-1.2.9-2.8 1.4-4.8 1.4-2.4 0-4.4-.7-5.8-2.2-1.4-1.5-2.1-3.6-2.1-6.3 0-2.8.7-5 2.2-6.5 1.4-1.5 3.3-2.3 5.6-2.3 2.2 0 4 .8 5.4 2.3 1.4 1.5 2.1 3.6 2.1 6.4v.8H38.6c.1 1.8.6 3.2 1.5 4.2s2.1 1.5 3.5 1.5c1 0 1.9-.3 2.6-.8.8-.9 1.4-1.8 1.8-2.9zm-9.2-4.6H48c-.1-1.4-.5-2.4-1-3.1-.9-1.1-2.1-1.6-3.5-1.6-1.3 0-2.4.4-3.3 1.3-.9.8-1.3 2-1.4 3.4zm21.9 9.9V.4h2.8v22.9h-2.8zm5.8-8.3c0-3.1.9-5.3 2.6-6.8 1.4-1.2 3.2-1.8 5.2-1.8 2.3 0 4.1.7 5.6 2.2 1.4 1.5 2.2 3.6 2.2 6.2 0 2.1-.3 3.8-1 5-.6 1.2-1.6 2.2-2.8 2.9-1.2.7-2.6 1-4 1-2.3 0-4.2-.7-5.6-2.2-1.5-1.6-2.2-3.7-2.2-6.5zm2.9 0c0 2.1.5 3.7 1.4 4.8.9 1.1 2.1 1.6 3.5 1.6s2.6-.5 3.5-1.6c.9-1.1 1.4-2.7 1.4-4.9 0-2.1-.5-3.6-1.4-4.7-.9-1.1-2.1-1.6-3.5-1.6s-2.6.5-3.5 1.6c-.9 1.1-1.4 2.7-1.4 4.8zm15.3 9.7l2.7.4c.1.8.4 1.5 1 1.8.7.5 1.7.8 2.9.8 1.3 0 2.3-.3 3-.8.7-.5 1.2-1.3 1.4-2.2.1-.6.2-1.8.2-3.6-1.2 1.4-2.8 2.2-4.6 2.2-2.3 0-4-.8-5.3-2.5-1.3-1.6-1.9-3.6-1.9-5.9 0-1.6.3-3 .9-4.4.6-1.3 1.4-2.4 2.5-3.1 1.1-.7 2.4-1.1 3.8-1.1 2 0 3.6.8 4.8 2.4v-2h2.6V21c0 2.6-.3 4.4-.8 5.5-.5 1.1-1.4 1.9-2.5 2.6s-2.5.9-4.2.9c-2 0-3.6-.4-4.8-1.3s-1.8-2.2-1.7-4zm2.3-10c0 2.2.4 3.8 1.3 4.8s1.9 1.5 3.3 1.5c1.3 0 2.4-.5 3.3-1.5.9-1 1.3-2.6 1.3-4.7 0-2-.5-3.6-1.4-4.6-.9-1-2-1.5-3.3-1.5-1.3 0-2.3.5-3.2 1.5S87 12.7 87 14.7zm14.7.3c0-3.1.9-5.3 2.6-6.8 1.4-1.2 3.2-1.8 5.2-1.8 2.3 0 4.1.7 5.6 2.2 1.4 1.5 2.2 3.6 2.2 6.2 0 2.1-.3 3.8-1 5-.6 1.2-1.6 2.2-2.8 2.9-1.2.7-2.6 1-4 1-2.3 0-4.2-.7-5.6-2.2-1.5-1.6-2.2-3.7-2.2-6.5zm2.9 0c0 2.1.5 3.7 1.4 4.8.9 1.1 2.1 1.6 3.5 1.6s2.6-.5 3.5-1.6c.9-1.1 1.4-2.7 1.4-4.9 0-2.1-.5-3.6-1.4-4.7-.9-1.1-2.1-1.6-3.5-1.6s-2.6.5-3.5 1.6c-1 1.1-1.4 2.7-1.4 4.8z"/></svg>